<?xml version="1.0" standalone="no"?>
<!DOCTYPE svg PUBLIC "-//W3C//DTD SVG 20010904//EN"
 "http://www.w3.org/TR/2001/REC-SVG-20010904/DTD/svg10.dtd">
<svg version="1.0" xmlns="http://www.w3.org/2000/svg"
 width="256.000000pt" height="256.000000pt" viewBox="0 0 256.000000 256.000000"
 preserveAspectRatio="xMidYMid meet">
<metadata>
Created by potrace 1.14, written by Peter Selinger 2001-2017
</metadata>
<g transform="translate(0.000000,256.000000) scale(0.100000,-0.100000)"
fill="#000000" stroke="none">
<path d="M1050 2061 c0 -10 29 -59 65 -108 89 -121 98 -139 90 -179 -6 -36
-47 -84 -70 -84 -20 0 -27 -16 -16 -37 5 -10 32 -76 60 -148 144 -378 192
-501 200 -515 9 -17 143 -91 150 -84 8 8 7 898 -1 915 -4 9 -24 26 -45 37 -21
10 -54 28 -73 39 -37 21 -95 53 -226 125 -102 57 -134 66 -134 39z"/>
<path d="M1579 1783 c-1 -9 -1 -885 0 -895 1 -8 91 -51 96 -46 5 5 112 275
187 473 17 44 37 94 44 112 8 17 14 37 14 45 0 14 -102 143 -148 187 -38 36
-170 131 -182 131 -5 0 -10 -3 -11 -7z"/>
<path d="M1000 1641 c-25 -10 -54 -22 -65 -26 -11 -5 -22 -9 -25 -10 -3 -1
-16 -6 -30 -12 -127 -53 -160 -68 -193 -85 -37 -18 -38 -20 -20 -36 10 -9 59
-62 108 -116 50 -55 104 -114 120 -131 17 -18 52 -56 79 -86 26 -30 82 -91
123 -136 l74 -81 64 29 c36 16 71 29 80 29 17 0 19 13 5 38 -5 9 -32 78 -60
152 -29 74 -56 144 -61 155 -4 11 -35 90 -68 175 -33 85 -65 156 -73 157 -7 1
-33 -6 -58 -16z"/>
<path d="M475 1407 c-266 -140 -310 -167 -318 -197 -4 -17 46 -45 417 -230
232 -115 427 -210 433 -210 16 0 118 109 118 125 0 7 -22 37 -50 67 -27 30
-88 96 -135 147 -47 52 -96 106 -110 121 -14 15 -57 63 -95 105 -87 97 -125
135 -133 135 -4 0 -61 -29 -127 -63z"/>
<path d="M1880 1237 c-41 -106 -93 -239 -116 -297 -26 -65 -39 -109 -33 -116
5 -6 27 -17 50 -24 l41 -14 35 40 c47 52 195 214 260 283 29 31 53 58 53 61 0
3 -31 35 -69 72 -37 36 -83 91 -100 122 -18 30 -36 58 -40 60 -4 3 -41 -81
-81 -187z"/>
<path d="M2160 1093 c-18 -21 -70 -78 -115 -128 -46 -49 -104 -112 -129 -140
-25 -27 -46 -55 -46 -60 0 -6 23 -24 50 -41 l50 -31 193 97 c146 74 191 101
189 114 -5 26 -140 226 -153 226 -4 0 -22 -17 -39 -37z"/>
<path d="M2185 753 l-189 -96 47 -42 46 -43 99 -1 100 -2 36 42 c20 24 36 47
36 52 0 5 9 21 19 36 26 36 31 81 15 119 -7 18 -14 32 -16 31 -2 0 -88 -44
-193 -96z"/>
</g>
</svg>
